<?xml version="1.0" standalone="no"?>
<!DOCTYPE svg PUBLIC "-//W3C//DTD SVG 20010904//EN"
 "http://www.w3.org/TR/2001/REC-SVG-20010904/DTD/svg10.dtd">
<svg version="1.0" xmlns="http://www.w3.org/2000/svg"
 width="480.000000pt" height="480.000000pt" viewBox="0 0 480.000000 480.000000"
 preserveAspectRatio="xMidYMid meet">
<metadata>
Created by potrace 1.11, written by Peter Selinger 2001-2013
</metadata>
<g transform="translate(0.000000,480.000000) scale(0.100000,-0.100000)"
fill="#000000" stroke="none">
<path d="M1360 3780 l0 -50 70 0 70 0 0 50 0 50 -70 0 -70 0 0 -50z"/>
<path d="M501 3808 c0 -7 23 -101 52 -208 l52 -195 66 -3 66 -3 12 48 c26 105
32 123 40 119 4 -3 16 -41 26 -86 l18 -81 65 3 65 3 53 200 c29 110 53 203 54
208 0 4 -26 7 -58 7 l-58 0 -18 -77 c-25 -108 -32 -117 -46 -63 -6 25 -17 65
-23 90 l-13 45 -61 3 -61 3 -17 -73 c-26 -113 -26 -113 -35 -97 -4 8 -16 49
-26 92 l-18 77 -68 0 c-48 0 -68 -4 -67 -12z"/>
<path d="M1580 3776 c0 -47 -9 -66 -31 -66 -15 0 -19 -7 -19 -40 0 -33 3 -40
20 -40 18 0 20 -7 21 -72 1 -130 27 -168 121 -168 70 0 78 6 78 56 0 43 -1 45
-27 42 l-28 -3 -3 73 -3 72 31 0 c28 0 30 2 30 40 0 38 -2 40 -30 40 -29 0
-30 1 -30 50 l0 50 -65 0 -65 0 0 -34z"/>
<path d="M1256 3713 c-4 -4 -38 -6 -77 -4 l-69 3 0 -156 0 -156 70 0 70 0 0
88 c0 96 12 122 58 122 20 0 22 5 22 55 l0 55 -33 0 c-19 0 -37 -3 -41 -7z"/>
<path d="M1879 3698 c-73 -42 -102 -151 -60 -228 36 -69 159 -102 244 -66 36
15 90 72 84 90 -2 6 -30 12 -62 14 -48 3 -61 0 -77 -17 -27 -30 -50 -24 -62
17 -7 22 -7 22 98 22 l106 0 0 38 c0 49 -37 111 -80 133 -49 27 -143 25 -191
-3z m119 -70 c23 -23 13 -38 -23 -38 -38 0 -40 2 -25 31 12 22 30 25 48 7z"/>
<path d="M1360 3555 l0 -155 70 0 70 0 0 155 0 155 -70 0 -70 0 0 -155z"/>
<path d="M1778 3000 c-58 -31 -91 -96 -96 -189 -3 -69 -1 -81 25 -130 21 -41
39 -60 72 -78 75 -39 184 -27 235 26 28 29 58 99 49 113 -2 5 -33 8 -68 8 -61
0 -65 -2 -71 -25 -3 -14 -15 -30 -26 -36 -17 -9 -25 -7 -42 10 -18 18 -21 33
-21 101 0 68 3 83 21 101 18 17 25 19 42 10 11 -6 23 -24 27 -41 6 -28 9 -30
53 -30 81 0 91 6 81 48 -9 41 -34 77 -73 106 -40 30 -157 34 -208 6z"/>
<path d="M530 2800 l0 -210 70 0 70 0 0 80 0 80 65 0 65 0 0 50 0 50 -65 0
-65 0 0 30 0 30 85 0 85 0 0 50 0 50 -155 0 -155 0 0 -210z"/>
<path d="M2100 2800 l0 -210 70 0 70 0 0 108 c0 102 7 132 32 132 4 0 8 -54 8
-120 l0 -120 76 0 76 0 -4 136 -3 136 -29 25 c-27 23 -36 25 -93 20 l-63 -5 0
54 0 54 -70 0 -70 0 0 -210z"/>
<path d="M3500 2958 c-11 -12 -20 -28 -20 -35 0 -9 -15 -13 -49 -13 -71 0
-108 -10 -136 -36 -32 -30 -35 -92 -5 -119 19 -17 19 -18 -5 -37 -27 -21 -34
-65 -14 -85 8 -8 5 -17 -10 -32 -41 -41 -17 -92 53 -110 56 -14 169 -14 219 0
129 36 105 189 -30 189 -55 0 -113 11 -113 21 0 5 23 9 50 9 60 0 114 20 129
48 16 29 14 84 -4 108 -17 25 -11 34 21 34 21 0 34 22 34 63 0 28 -93 24 -120
-5z m-52 -142 c4 -36 -12 -54 -33 -36 -18 15 -20 41 -3 58 18 18 33 9 36 -22z
m39 -242 c9 -24 -16 -35 -65 -31 -85 9 -82 47 4 47 41 0 56 -4 61 -16z"/>
<path d="M948 2890 c-57 -31 -81 -78 -76 -153 4 -75 25 -108 86 -138 34 -17
56 -20 103 -17 66 5 100 24 137 79 20 29 23 44 20 94 -4 71 -30 114 -82 139
-47 22 -141 20 -188 -4z m122 -145 c0 -41 -5 -67 -14 -74 -22 -19 -40 15 -40
74 0 59 18 93 40 74 9 -7 14 -33 14 -74z"/>
<path d="M1416 2903 c-4 -4 -38 -6 -77 -4 l-69 3 0 -156 0 -156 70 0 70 0 0
88 c0 96 12 122 58 122 20 0 22 5 22 55 l0 55 -33 0 c-19 0 -37 -3 -41 -7z"/>
<path d="M2550 2893 c-33 -17 -70 -66 -59 -77 3 -3 31 -8 62 -12 48 -6 60 -4
71 11 15 21 50 16 54 -8 3 -13 -3 -17 -26 -17 -45 0 -122 -26 -148 -51 -34
-32 -33 -97 1 -129 32 -30 110 -39 154 -17 17 9 31 11 31 6 0 -5 29 -9 65 -9
l65 0 -1 108 c-2 135 -7 160 -42 186 -40 30 -176 35 -227 9z m130 -182 c0 -21
-25 -51 -41 -51 -22 0 -22 34 0 52 30 23 41 23 41 -1z"/>
<path d="M3047 2904 c-4 -4 -43 -6 -87 -5 l-80 2 0 -155 0 -156 70 0 70 0 0
101 c0 97 11 146 31 134 5 -4 9 -58 9 -121 l0 -114 76 0 77 0 -5 137 c-5 133
-5 137 -32 160 -20 17 -39 23 -75 23 -26 0 -51 -3 -54 -6z"/>
<path d="M3709 2888 c-73 -42 -102 -151 -60 -228 36 -69 159 -102 244 -66 36
15 90 72 84 90 -2 6 -30 12 -62 14 -48 3 -61 0 -77 -17 -27 -30 -50 -24 -62
17 -7 22 -7 22 98 22 l106 0 0 38 c0 49 -37 111 -80 133 -49 27 -143 25 -191
-3z m119 -70 c23 -23 13 -38 -23 -38 -38 0 -40 2 -25 31 12 22 30 25 48 7z"/>
<path d="M4030 2645 l0 -55 65 0 65 0 0 55 0 55 -65 0 -65 0 0 -55z"/>
<path d="M1423 2153 c-4 -10 -11 -22 -17 -26 -8 -6 -7 -10 2 -14 7 -3 12 -23
12 -49 0 -24 5 -44 10 -44 6 0 10 20 10 44 0 26 5 46 13 49 9 4 8 8 -3 16 -12
9 -12 11 3 17 23 9 21 24 -3 24 -11 0 -24 -8 -27 -17z"/>
<path d="M1493 2153 c-4 -10 -11 -22 -17 -26 -8 -6 -7 -10 2 -14 7 -3 12 -23
12 -49 0 -24 5 -44 10 -44 6 0 10 20 10 44 0 26 5 46 13 49 9 4 8 8 -3 16 -12
9 -12 11 3 17 23 9 21 24 -3 24 -11 0 -24 -8 -27 -17z"/>
<path d="M530 2091 c0 -41 4 -71 10 -71 6 0 10 24 11 53 l1 52 17 -49 c9 -28
22 -51 29 -54 6 -2 16 16 23 40 18 64 29 68 29 10 0 -40 4 -52 15 -52 12 0 15
15 15 71 l0 70 -27 -3 c-21 -2 -29 -10 -37 -35 -5 -18 -12 -33 -16 -33 -4 0
-11 15 -16 33 -7 22 -17 33 -32 35 -21 3 -22 0 -22 -67z"/>
<path d="M810 2090 c0 -56 3 -70 15 -70 8 0 15 9 15 19 0 30 16 33 28 6 7 -14
18 -25 26 -25 13 0 13 4 0 35 -11 26 -12 41 -4 55 16 29 -5 25 -29 -6 l-21
-27 0 42 c0 30 -4 41 -15 41 -12 0 -15 -14 -15 -70z"/>
<path d="M1300 2140 c0 -13 -5 -18 -15 -14 -24 9 -45 -15 -45 -51 0 -39 14
-52 58 -53 l32 -1 0 70 c0 55 -3 69 -15 69 -8 0 -15 -9 -15 -20z m-5 -65 c0
-16 -6 -30 -12 -32 -9 -3 -13 7 -13 32 0 25 4 35 13 33 6 -3 12 -17 12 -33z"/>
<path d="M1360 2150 c0 -5 5 -10 10 -10 6 0 10 5 10 10 0 6 -4 10 -10 10 -5 0
-10 -4 -10 -10z"/>
<path d="M713 2123 c-26 -10 -12 -24 17 -18 39 9 39 -7 -1 -22 -24 -9 -30 -17
-27 -35 3 -20 9 -23 46 -25 l42 -1 0 42 c0 23 -5 47 -12 54 -12 12 -43 15 -65
5z m47 -57 c0 -16 -18 -31 -27 -22 -8 8 5 36 17 36 5 0 10 -6 10 -14z"/>
<path d="M932 2118 c-16 -16 -16 -70 0 -86 17 -17 53 -15 68 3 16 20 5 32 -14
16 -8 -7 -20 -10 -26 -6 -20 12 -10 25 20 25 22 0 30 5 30 18 0 24 -19 42 -45
42 -12 0 -26 -5 -33 -12z m48 -18 c0 -5 -7 -10 -15 -10 -8 0 -15 5 -15 10 0 6
7 10 15 10 8 0 15 -4 15 -10z"/>
<path d="M1093 2123 c-26 -10 -12 -24 17 -18 39 9 39 -7 -1 -22 -24 -9 -30
-17 -27 -35 3 -20 9 -23 46 -25 l42 -1 0 42 c0 23 -5 47 -12 54 -12 12 -43 15
-65 5z m47 -57 c0 -16 -18 -31 -27 -22 -8 8 5 36 17 36 5 0 10 -6 10 -14z"/>
<path d="M1360 2075 c0 -30 5 -55 10 -55 6 0 10 25 10 55 0 30 -4 55 -10 55
-5 0 -10 -25 -10 -55z"/>
<path d="M1562 2118 c-7 -7 -12 -26 -12 -43 0 -17 5 -36 12 -43 17 -17 53 -15
68 3 16 20 5 32 -14 16 -8 -7 -20 -10 -26 -6 -20 12 -10 25 20 25 22 0 30 5
30 18 0 24 -19 42 -45 42 -12 0 -26 -5 -33 -12z m48 -18 c0 -5 -7 -10 -15 -10
-8 0 -15 5 -15 10 0 6 7 10 15 10 8 0 15 -4 15 -10z"/>
<path d="M1660 2075 c0 -42 3 -55 15 -55 11 0 15 11 15 35 0 22 6 38 15 41 8
4 15 11 15 16 0 6 -7 8 -15 4 -8 -3 -15 -1 -15 4 0 6 -7 10 -15 10 -12 0 -15
-13 -15 -55z"/>
<path d="M1742 2118 c-7 -7 -12 -26 -12 -43 0 -17 5 -36 12 -43 17 -17 53 -15
68 3 16 20 5 32 -14 16 -8 -7 -20 -10 -26 -6 -20 12 -10 25 20 25 22 0 30 5
30 18 0 24 -19 42 -45 42 -12 0 -26 -5 -33 -12z m48 -18 c0 -5 -7 -10 -15 -10
-8 0 -15 5 -15 10 0 6 7 10 15 10 8 0 15 -4 15 -10z"/>
<path d="M1840 2075 c0 -41 4 -55 14 -55 10 0 16 14 18 43 2 29 8 42 18 42 10
0 16 -13 18 -42 2 -29 8 -43 18 -43 19 0 19 69 0 96 -13 16 -18 17 -35 6 -13
-7 -21 -8 -21 -2 0 5 -7 10 -15 10 -12 0 -15 -13 -15 -55z"/>
<path d="M1975 2114 c-26 -26 -16 -77 18 -88 21 -8 31 -6 44 7 20 20 10 35
-11 18 -20 -17 -36 -6 -36 24 0 28 17 42 33 26 15 -15 27 -14 27 3 0 28 -50
34 -75 10z"/>
<path d="M2082 2118 c-7 -7 -12 -26 -12 -43 0 -17 5 -36 12 -43 17 -17 53 -15
68 3 16 20 5 32 -14 16 -8 -7 -20 -10 -26 -6 -20 12 -10 25 20 25 22 0 30 5
30 18 0 24 -19 42 -45 42 -12 0 -26 -5 -33 -12z m48 -18 c0 -5 -7 -10 -15 -10
-8 0 -15 5 -15 10 0 6 7 10 15 10 8 0 15 -4 15 -10z"/>
<path d="M2180 2035 c0 -8 7 -15 15 -15 8 0 15 7 15 15 0 8 -7 15 -15 15 -8 0
-15 -7 -15 -15z"/>
<path d="M530 1831 c0 -41 4 -71 10 -71 6 0 10 24 11 53 l1 52 17 -49 c9 -28
22 -51 29 -54 6 -2 16 16 23 40 18 64 29 68 29 10 0 -40 4 -52 15 -52 12 0 15
15 15 71 l0 70 -27 -3 c-21 -2 -29 -10 -37 -35 -5 -18 -12 -33 -16 -33 -4 0
-11 15 -16 33 -7 22 -17 33 -32 35 -21 3 -22 0 -22 -67z"/>
<path d="M810 1830 c0 -56 3 -70 15 -70 8 0 15 9 15 19 0 30 16 33 28 6 7 -14
18 -25 26 -25 13 0 13 4 0 35 -11 26 -12 41 -4 55 16 29 -5 25 -29 -6 l-21
-27 0 42 c0 30 -4 41 -15 41 -12 0 -15 -14 -15 -70z"/>
<path d="M1720 1890 c0 -5 5 -10 10 -10 6 0 10 5 10 10 0 6 -4 10 -10 10 -5 0
-10 -4 -10 -10z"/>
<path d="M2040 1830 c0 -54 3 -70 14 -70 10 0 16 13 18 42 4 59 28 63 28 4 0
-34 4 -46 15 -46 11 0 15 11 15 43 0 53 -12 72 -39 64 -16 -4 -21 -1 -21 14 0
10 -7 19 -15 19 -12 0 -15 -14 -15 -70z"/>
<path d="M2500 1880 c0 -13 -5 -18 -15 -14 -24 9 -45 -15 -45 -51 0 -39 14
-52 58 -53 l32 -1 0 70 c0 55 -3 69 -15 69 -8 0 -15 -9 -15 -20z m-5 -65 c0
-16 -6 -30 -12 -32 -9 -3 -13 7 -13 32 0 25 4 35 13 33 6 -3 12 -17 12 -33z"/>
<path d="M713 1863 c-26 -10 -12 -24 17 -18 39 9 39 -7 -1 -22 -24 -9 -30 -17
-27 -35 3 -20 9 -23 46 -25 l42 -1 0 42 c0 23 -5 47 -12 54 -12 12 -43 15 -65
5z m47 -57 c0 -16 -18 -31 -27 -22 -8 8 5 36 17 36 5 0 10 -6 10 -14z"/>
<path d="M932 1858 c-16 -16 -16 -70 0 -86 17 -17 53 -15 68 3 16 20 5 32 -14
16 -8 -7 -20 -10 -26 -6 -20 12 -10 25 20 25 22 0 30 5 30 18 0 24 -19 42 -45
42 -12 0 -26 -5 -33 -12z m48 -18 c0 -5 -7 -10 -15 -10 -8 0 -15 5 -15 10 0 6
7 10 15 10 8 0 15 -4 15 -10z"/>
<path d="M1070 1868 c0 -2 9 -28 21 -58 19 -51 20 -55 3 -67 -20 -14 -13 -28
10 -20 8 3 23 32 32 64 9 32 19 64 21 71 3 6 0 12 -6 12 -6 0 -13 -11 -17 -25
-3 -14 -10 -25 -14 -25 -4 0 -11 11 -14 25 -4 14 -13 25 -21 25 -8 0 -15 -1
-15 -2z"/>
<path d="M1182 1858 c-16 -16 -16 -70 0 -86 7 -7 21 -12 33 -12 30 0 45 19 45
55 0 36 -15 55 -45 55 -12 0 -26 -5 -33 -12z m48 -43 c0 -24 -5 -35 -15 -35
-10 0 -15 11 -15 35 0 24 5 35 15 35 10 0 15 -11 15 -35z"/>
<path d="M1280 1828 c0 -57 8 -66 53 -66 l37 0 0 54 c0 40 -4 54 -14 54 -10 0
-16 -13 -18 -42 -4 -59 -28 -63 -28 -4 0 34 -4 46 -15 46 -11 0 -15 -11 -15
-42z"/>
<path d="M1390 1815 c0 -42 3 -55 15 -55 11 0 15 11 15 35 0 22 6 38 15 41 8
4 15 11 15 16 0 6 -7 8 -15 4 -8 -3 -15 -1 -15 4 0 6 -7 10 -15 10 -12 0 -15
-13 -15 -55z"/>
<path d="M1503 1856 c3 -8 11 -32 18 -55 7 -23 18 -41 25 -41 7 0 20 23 29 52
18 61 18 58 5 58 -5 0 -14 -15 -19 -32 l-9 -33 -12 33 c-7 17 -19 32 -27 32
-9 0 -13 -6 -10 -14z"/>
<path d="M1612 1858 c-7 -7 -12 -26 -12 -43 0 -36 15 -55 45 -55 30 0 45 19
45 55 0 36 -15 55 -45 55 -12 0 -26 -5 -33 -12z m48 -43 c0 -24 -5 -35 -15
-35 -10 0 -15 11 -15 35 0 24 5 35 15 35 10 0 15 -11 15 -35z"/>
<path d="M1720 1815 c0 -30 5 -55 10 -55 6 0 10 25 10 55 0 30 -4 55 -10 55
-5 0 -10 -25 -10 -55z"/>
<path d="M1785 1854 c-26 -26 -16 -77 18 -88 21 -8 31 -6 44 7 20 20 10 35
-11 18 -20 -17 -36 -6 -36 24 0 28 17 42 33 26 15 -15 27 -14 27 3 0 28 -50
34 -75 10z"/>
<path d="M1892 1858 c-7 -7 -12 -26 -12 -43 0 -17 5 -36 12 -43 17 -17 53 -15
68 3 16 20 5 32 -14 16 -8 -7 -20 -10 -26 -6 -20 12 -10 25 20 25 22 0 30 5
30 18 0 24 -19 42 -45 42 -12 0 -26 -5 -33 -12z m48 -18 c0 -5 -7 -10 -15 -10
-8 0 -15 5 -15 10 0 6 7 10 15 10 8 0 15 -4 15 -10z"/>
<path d="M2162 1858 c-7 -7 -12 -26 -12 -43 0 -17 5 -36 12 -43 17 -17 53 -15
68 3 16 20 5 32 -14 16 -8 -7 -20 -10 -26 -6 -20 12 -10 25 20 25 22 0 30 5
30 18 0 24 -19 42 -45 42 -12 0 -26 -5 -33 -12z m48 -18 c0 -5 -7 -10 -15 -10
-8 0 -15 5 -15 10 0 6 7 10 15 10 8 0 15 -4 15 -10z"/>
<path d="M2273 1863 c-26 -10 -12 -24 17 -18 39 9 39 -7 -1 -22 -24 -9 -30
-17 -27 -35 3 -20 9 -23 46 -25 l42 -1 0 42 c0 23 -5 47 -12 54 -12 12 -43 15
-65 5z m47 -57 c0 -16 -18 -31 -27 -22 -8 8 5 36 17 36 5 0 10 -6 10 -14z"/>
<path d="M2370 1815 c0 -42 3 -55 15 -55 11 0 15 11 15 35 0 22 6 38 15 41 8
4 15 11 15 16 0 6 -7 8 -15 4 -8 -3 -15 -1 -15 4 0 6 -7 10 -15 10 -12 0 -15
-13 -15 -55z"/>
<path d="M2550 1775 c0 -8 7 -15 15 -15 8 0 15 7 15 15 0 8 -7 15 -15 15 -8 0
-15 -7 -15 -15z"/>
<path d="M1063 1093 c-4 -10 -11 -22 -17 -26 -8 -6 -7 -10 2 -14 7 -3 12 -23
12 -49 0 -24 5 -44 10 -44 6 0 10 20 10 44 0 26 5 46 13 49 9 4 8 8 -3 16 -12
9 -12 11 3 17 23 9 21 24 -3 24 -11 0 -24 -8 -27 -17z"/>
<path d="M770 1090 c0 -5 5 -10 10 -10 6 0 10 5 10 10 0 6 -4 10 -10 10 -5 0
-10 -4 -10 -10z"/>
<path d="M830 1086 c0 -8 -6 -17 -12 -19 -10 -4 -10 -8 -1 -14 6 -4 13 -26 15
-48 2 -33 7 -41 26 -43 12 -2 22 1 22 7 0 6 -4 11 -10 11 -15 0 -12 67 3 74
10 5 10 7 0 12 -7 3 -13 12 -13 20 0 8 -7 14 -15 14 -8 0 -15 -6 -15 -14z"/>
<path d="M1460 1030 c0 -54 3 -70 14 -70 10 0 16 13 18 42 4 59 28 63 28 4 0
-34 4 -46 15 -46 11 0 15 11 15 43 0 53 -12 72 -39 64 -16 -4 -21 -1 -21 14 0
10 -7 19 -15 19 -12 0 -15 -14 -15 -70z"/>
<path d="M2190 1030 c0 -56 3 -70 15 -70 8 0 15 9 15 19 0 30 16 33 28 6 7
-14 18 -25 26 -25 13 0 13 4 0 35 -11 26 -12 41 -4 55 16 29 -5 25 -29 -6
l-21 -27 0 42 c0 30 -4 41 -15 41 -12 0 -15 -14 -15 -70z"/>
<path d="M1880 1080 c0 -5 -13 -10 -29 -10 -38 0 -59 -25 -43 -51 9 -14 9 -19
1 -19 -6 0 -9 -9 -6 -20 3 -11 1 -23 -4 -26 -18 -11 13 -34 45 -34 40 0 59 13
54 36 -2 13 -13 20 -36 22 -37 4 -44 22 -7 22 27 0 45 24 38 51 -3 11 0 19 6
19 6 0 11 5 11 10 0 6 -7 10 -15 10 -8 0 -15 -4 -15 -10z m-13 -36 c8 -21 -13
-42 -28 -27 -13 13 -5 43 11 43 6 0 13 -7 17 -16z m13 -94 c0 -5 -13 -10 -30
-10 -16 0 -30 5 -30 10 0 6 14 10 30 10 17 0 30 -4 30 -10z"/>
<path d="M548 1016 c17 -63 35 -71 49 -23 l10 32 7 -32 c4 -18 14 -33 22 -33
8 0 14 3 14 8 0 4 7 28 15 55 11 38 12 47 1 47 -8 0 -17 -15 -21 -32 l-8 -33
-6 30 c-7 35 -35 40 -39 8 -4 -30 -20 -30 -24 -1 -2 13 -10 24 -19 26 -15 3
-15 -1 -1 -52z"/>
<path d="M690 1015 c0 -42 3 -55 15 -55 11 0 15 11 15 35 0 22 6 38 15 41 8 4
15 11 15 16 0 6 -7 8 -15 4 -8 -3 -15 -1 -15 4 0 6 -7 10 -15 10 -12 0 -15
-13 -15 -55z"/>
<path d="M770 1015 c0 -30 5 -55 10 -55 6 0 10 25 10 55 0 30 -4 55 -10 55 -5
0 -10 -25 -10 -55z"/>
<path d="M902 1058 c-16 -16 -16 -70 0 -86 17 -17 53 -15 68 3 16 20 5 32 -14
16 -8 -7 -20 -10 -26 -6 -20 12 -10 25 20 25 22 0 30 5 30 18 0 24 -19 42 -45
42 -12 0 -26 -5 -33 -12z m48 -18 c0 -5 -7 -10 -15 -10 -8 0 -15 5 -15 10 0 6
7 10 15 10 8 0 15 -4 15 -10z"/>
<path d="M1132 1058 c-16 -16 -16 -70 0 -86 7 -7 21 -12 33 -12 30 0 45 19 45
55 0 36 -15 55 -45 55 -12 0 -26 -5 -33 -12z m48 -43 c0 -24 -5 -35 -15 -35
-10 0 -15 11 -15 35 0 24 5 35 15 35 10 0 15 -11 15 -35z"/>
<path d="M1230 1015 c0 -42 3 -55 15 -55 11 0 15 11 15 35 0 22 6 38 15 41 8
4 15 11 15 16 0 6 -7 8 -15 4 -8 -3 -15 -1 -15 4 0 6 -7 10 -15 10 -12 0 -15
-13 -15 -55z"/>
<path d="M1365 1054 c-26 -26 -16 -77 18 -88 21 -8 31 -6 44 7 20 20 10 35
-11 18 -20 -17 -36 -6 -36 24 0 28 17 42 33 26 15 -15 27 -14 27 3 0 28 -50
34 -75 10z"/>
<path d="M1583 1063 c-26 -10 -12 -24 17 -18 39 9 39 -7 -1 -22 -24 -9 -30
-17 -27 -35 3 -20 9 -23 46 -25 l42 -1 0 42 c0 23 -5 47 -12 54 -12 12 -43 15
-65 5z m47 -57 c0 -16 -18 -31 -27 -22 -8 8 5 36 17 36 5 0 10 -6 10 -14z"/>
<path d="M1680 1015 c0 -41 4 -55 14 -55 10 0 16 14 18 43 2 29 8 42 18 42 10
0 16 -13 18 -42 2 -29 8 -43 18 -43 19 0 19 69 0 96 -13 16 -18 17 -35 6 -13
-7 -21 -8 -21 -2 0 5 -7 10 -15 10 -12 0 -15 -13 -15 -55z"/>
<path d="M1932 1058 c-7 -7 -12 -26 -12 -43 0 -17 5 -36 12 -43 17 -17 53 -15
68 3 16 20 5 32 -14 16 -8 -7 -20 -10 -26 -6 -20 12 -10 25 20 25 22 0 30 5
30 18 0 24 -19 42 -45 42 -12 0 -26 -5 -33 -12z m48 -18 c0 -5 -7 -10 -15 -10
-8 0 -15 5 -15 10 0 6 7 10 15 10 8 0 15 -4 15 -10z"/>
<path d="M2080 1028 c0 -57 8 -66 53 -66 l37 0 0 54 c0 40 -4 54 -14 54 -10 0
-16 -13 -18 -42 -4 -59 -28 -63 -28 -4 0 34 -4 46 -15 46 -11 0 -15 -11 -15
-42z"/>
<path d="M990 1010 c0 -5 11 -10 25 -10 14 0 25 5 25 10 0 6 -11 10 -25 10
-14 0 -25 -4 -25 -10z"/>
<path d="M1290 1010 c0 -5 11 -10 25 -10 14 0 25 5 25 10 0 6 -11 10 -25 10
-14 0 -25 -4 -25 -10z"/>
<path d="M2030 975 c0 -8 7 -15 15 -15 8 0 15 7 15 15 0 8 -7 15 -15 15 -8 0
-15 -7 -15 -15z"/>
</g>
</svg>
