<svg xmlns="http://www.w3.org/2000/svg" viewBox="0 0 646.5 390.01"><defs><style>.cls-1{fill:#a09f9f;}</style></defs><title>Asset 1</title><g id="Layer_2" data-name="Layer 2"><g id="Layer_1-2" data-name="Layer 1"><path class="cls-1" d="M54.86,2h53.06c25.7,0,37,12.75,37,27.73,0,11.38-6,19.5-14.52,23,8,2.84,17.47,10.32,17.47,24.1,0,17.48-13.06,31.77-39.65,31.77H54.86Zm47.76,41.11c8.6,0,12.08-4.43,12.08-10.21,0-6.61-4.81-9.85-12.32-9.85H85.18V43.09ZM85.18,87.6h16c10.27,0,14.63-4.46,14.63-12.09,0-6.7-4.13-11.43-14.06-11.43H85.18Z"/><path class="cls-1" d="M167.07,2H198.4V85.44h50.25l-3.38,23.15h-78.2Z"/><path class="cls-1" d="M296.48,87.86l-6.17,20.73H259.88L293.57,2H334l35,106.61H336.41l-6.47-20.73Zm28-23.15c-5-16.75-9.1-31.65-11.52-42h-.42c-2.47,11.48-6.55,26.7-10.87,42Z"/><path class="cls-1" d="M479.05,73.53c-3.91,22.29-20.26,37.05-49.52,37.05-34.92,0-51.79-23.57-51.79-54.51C377.74,25.89,394.42,0,431,0c31.33,0,45.6,18.22,47.69,36.67h-31C446.31,29,441.86,22,430.32,22,415.13,22,410,36.37,410,55c0,16.9,4.32,33.59,20.72,33.59,12.42,0,15.89-9,17.22-15Z"/><path class="cls-1" d="M497.83,2h31V45.27c7-9.73,22.72-29.24,33.24-43.29h37L559.92,45.67l40.51,62.92H563.82L538.29,65.83l-9.44,9.72v33h-31Z"/><path class="cls-1" d="M93.1,142.69h31.33v83.46h50.25l-3.39,23.15H93.1Z"/><path class="cls-1" d="M222.09,142.69V249.3H190.76V142.69Z"/><path class="cls-1" d="M273.55,249.3,237.06,142.69h33.19l13.16,45.8c4.15,14.21,6.59,24.07,9,36h.47c2.06-11,4.8-20.92,9.21-35.66l13.61-46.11h32L310.4,249.3Z"/><path class="cls-1" d="M440.88,206.16H392.32v20h54.2L443,249.3H362.25V142.69h80.69v23.15H392.32V183h48.56Z"/><path class="cls-1" d="M490.29,217c1.78,9.3,8.28,13.2,18.37,13.2,9.45,0,13.81-3.31,13.81-9.49,0-7-4.73-9.66-21.57-13.69-31.46-7.62-37.72-19.1-37.72-33.45,0-17.89,13.14-32.87,42.82-32.87,30.85,0,43.44,15.65,44.94,32.46H520.76c-.82-5.72-3.75-11.54-14.84-11.54-7.15,0-11.55,2.7-11.55,8.47s3.91,8,20.35,12.05c32.86,8.2,39.38,20,39.38,35.2,0,20-15.45,33.93-46.75,33.93-29.48,0-45.1-13.76-47.46-34.27Z"/><path class="cls-1" d="M89,355.22c0-16.66.36-38.13.83-50.79H89C84.56,327.3,77.39,359,69.59,390h-25c-6.13-30.11-13.13-61.84-17.28-85.56h-.94c.88,12.54,1.45,33.35,1.45,51.61V390H0V283.4H45C50.23,305,56.37,336.24,58.76,352h.54c2.74-17.14,9.85-45.43,16-68.6H119V390H89Z"/><path class="cls-1" d="M171.34,369.27,165.17,390H134.74L168.43,283.4h40.44L243.9,390H211.27l-6.47-20.74Zm28-23.15c-5-16.75-9.11-31.64-11.52-42h-.43c-2.47,11.49-6.54,26.7-10.87,42Z"/><path class="cls-1" d="M269.83,306.55H239.36V283.4h92v23.15H301.11V390H269.83Z"/><path class="cls-1" d="M375.85,306.55H345.38V283.4h92v23.15H407.13V390H375.85Z"/><path class="cls-1" d="M532.74,346.86H484.18v20h54.2L534.9,390H454.11V283.4H534.8v23.15H484.18v17.16h48.56Z"/><path class="cls-1" d="M586.74,349.73V390H556.41V283.4h52.83c25.11,0,37.26,13.43,37.26,29.52,0,14.72-8.61,22.25-16,25.28,6.72,2.35,13.9,9.46,13.9,27.51v4.44c0,6.64.21,15.24,1.39,19.86H616c-1.8-4.59-2.26-12.33-2.26-23.28V364c0-9.21-2.2-14.25-16-14.25Zm0-21.78H601.2c10.4,0,14.19-4.32,14.19-11.49s-4.5-11.29-14-11.29h-14.6Z"/></g></g></svg>